<svg xmlns="http://www.w3.org/2000/svg" xmlns:xlink="http://www.w3.org/1999/xlink" version="1.1" width="300" height="100" viewBox="0 0 300 100" xml:space="preserve">
    <desc>Created with Fabric.js 3.6.6</desc>
    <defs>
    </defs>
    <g transform="matrix(0.27 0 0 0.25 150 50.26)"  >
    <g style=""   >
            <g transform="matrix(1 0 0 1 -272.2 20.6)" id="Layer_1-2"  >
    <path style="stroke: none; stroke-width: 1; stroke-dasharray: none; stroke-linecap: butt; stroke-dashoffset: 0; stroke-linejoin: miter; stroke-miterlimit: 4; fill: rgb(59,59,59); fill-rule: nonzero; opacity: 1;"  transform=" translate(-267.8, -155.9)" d="M 306.2 155.7 a 3.56 3.56 0 0 1 -3.6 3.5 H 236.3 c 1.7 16.4 14 31.4 31.4 31.4 c 11.9 0 20.7 -4.5 27.3 -14 a 3.58 3.58 0 0 1 2.9 -1.7 a 3.21 3.21 0 0 1 3.3 3.3 a 3.1 3.1 0 0 1 -0.5 1.7 c -6.7 11.6 -20 17.3 -33 17.3 c -22.3 0 -38.3 -20 -38.3 -41.3 s 15.9 -41.3 38.3 -41.3 s 38.4 19.8 38.5 41.1 Z m -7.1 -3.1 c -1.4 -16.4 -14 -31.4 -31.4 -31.4 s -29.7 15 -31.4 31.4 Z" stroke-linecap="round" />
    </g>
            <g transform="matrix(1 0 0 1 -173.95 6.29)" id="Layer_1-2"  >
    <path style="stroke: none; stroke-width: 1; stroke-dasharray: none; stroke-linecap: butt; stroke-dashoffset: 0; stroke-linejoin: miter; stroke-miterlimit: 4; fill: rgb(59,59,59); fill-rule: nonzero; opacity: 1;"  transform=" translate(-366.05, -141.59)" d="M 386.8 116.2 a 3.4 3.4 0 0 1 3.3 3.3 a 3.21 3.21 0 0 1 -3.3 3.3 H 369 v 69.9 a 3.33 3.33 0 0 1 -3.3 3.3 a 3.4 3.4 0 0 1 -3.3 -3.3 V 122.8 H 345.3 a 3.21 3.21 0 0 1 -3.3 -3.3 a 3.33 3.33 0 0 1 3.3 -3.3 h 17.1 V 90.7 a 3.55 3.55 0 0 1 3 -3.5 a 3.27 3.27 0 0 1 3.7 3.3 v 25.7 Z" stroke-linecap="round" />
    </g>
            <g transform="matrix(1 0 0 1 -77.25 -12.44)" id="Layer_1-2"  >
    <path style="stroke: none; stroke-width: 1; stroke-dasharray: none; stroke-linecap: butt; stroke-dashoffset: 0; stroke-linejoin: miter; stroke-miterlimit: 4; fill: rgb(59,59,59); fill-rule: nonzero; opacity: 1;"  transform=" translate(-462.75, -122.86)" d="M 495.3 150 v 42.3 a 3.4 3.4 0 0 1 -3.3 3.3 a 3.21 3.21 0 0 1 -3.3 -3.3 V 150 c 0 -14.3 -8.1 -28.5 -24 -28.5 c -20.4 0 -29.2 17.8 -28 36.1 c 0 0.5 0.2 2.6 0.2 2.9 v 31.7 a 3.55 3.55 0 0 1 -3 3.5 a 3.27 3.27 0 0 1 -3.7 -3.3 V 53.3 a 3.33 3.33 0 0 1 3.3 -3.3 a 3.4 3.4 0 0 1 3.3 3.3 v 78.6 c 5.7 -10.2 15.9 -17.1 27.8 -17.1 c 19.6 0 30.7 17.1 30.7 35.2 Z" stroke-linecap="round" />
    </g>
            <g transform="matrix(1 0 0 1 36 20.6)" id="Layer_1-2"  >
    <path style="stroke: none; stroke-width: 1; stroke-dasharray: none; stroke-linecap: butt; stroke-dashoffset: 0; stroke-linejoin: miter; stroke-miterlimit: 4; fill: rgb(59,59,59); fill-rule: nonzero; opacity: 1;"  transform=" translate(-576, -155.9)" d="M 614.4 155.7 a 3.56 3.56 0 0 1 -3.6 3.5 H 544.5 c 1.7 16.4 14 31.4 31.4 31.4 c 11.9 0 20.7 -4.5 27.3 -14 a 3.58 3.58 0 0 1 2.9 -1.7 a 3.21 3.21 0 0 1 3.3 3.3 a 3.1 3.1 0 0 1 -0.5 1.7 c -6.7 11.6 -20 17.3 -33 17.3 c -22.3 0 -38.3 -20 -38.3 -41.3 s 15.9 -41.3 38.3 -41.3 c 22.2 0 38.4 19.8 38.5 41.1 Z m -7.2 -3.1 c -1.4 -16.4 -14 -31.4 -31.4 -31.4 s -29.7 15 -31.4 31.4 Z" stroke-linecap="round" />
    </g>
            <g transform="matrix(1 0 0 1 136.85 20.51)" id="Layer_1-2"  >
    <path style="stroke: none; stroke-width: 1; stroke-dasharray: none; stroke-linecap: butt; stroke-dashoffset: 0; stroke-linejoin: miter; stroke-miterlimit: 4; fill: rgb(59,59,59); fill-rule: nonzero; opacity: 1;"  transform=" translate(-676.85, -155.81)" d="M 695.9 119.3 a 3.37 3.37 0 0 1 -3.1 3.6 c -19.5 2.9 -28.3 18.8 -28.3 37.3 v 31.7 a 3.55 3.55 0 0 1 -3 3.5 a 3.27 3.27 0 0 1 -3.7 -3.3 V 119.8 a 3.55 3.55 0 0 1 3 -3.5 a 3.27 3.27 0 0 1 3.7 3.3 v 14.7 c 5.5 -9.3 16.4 -18.1 27.8 -18.1 C 694 116.2 695.9 117.4 695.9 119.3 Z" stroke-linecap="round" />
    </g>
            <g transform="matrix(1 0 0 1 226.5 20.6)" id="Layer_1-2"  >
    <path style="stroke: none; stroke-width: 1; stroke-dasharray: none; stroke-linecap: butt; stroke-dashoffset: 0; stroke-linejoin: miter; stroke-miterlimit: 4; fill: rgb(59,59,59); fill-rule: nonzero; opacity: 1;"  transform=" translate(-766.5, -155.9)" d="M 804.9 155.7 a 3.56 3.56 0 0 1 -3.6 3.5 H 735 c 1.7 16.4 14 31.4 31.4 31.4 c 11.9 0 20.7 -4.5 27.3 -14 a 3.58 3.58 0 0 1 2.9 -1.7 a 3.21 3.21 0 0 1 3.3 3.3 a 3.1 3.1 0 0 1 -0.5 1.7 c -6.7 11.6 -20 17.3 -33 17.3 c -22.3 0 -38.3 -20 -38.3 -41.3 s 15.9 -41.3 38.3 -41.3 s 38.4 19.8 38.5 41.1 Z m -7.1 -3.1 c -1.4 -16.4 -14 -31.4 -31.4 -31.4 s -29.7 15 -31.4 31.4 Z" stroke-linecap="round" />
    </g>
            <g transform="matrix(1 0 0 1 339.7 21.85)" id="Layer_1-2"  >
    <path style="stroke: none; stroke-width: 1; stroke-dasharray: none; stroke-linecap: butt; stroke-dashoffset: 0; stroke-linejoin: miter; stroke-miterlimit: 4; fill: rgb(59,59,59); fill-rule: nonzero; opacity: 1;"  transform=" translate(-879.7, -157.15)" d="M 912.1 120.1 v 72.6 a 3.4 3.4 0 0 1 -3.3 3.3 a 3.21 3.21 0 0 1 -3.3 -3.3 V 178.9 c -5.5 10.9 -15.2 18.8 -27.6 18.8 c -19.7 0 -30.6 -17.1 -30.6 -35.2 V 120 a 3.33 3.33 0 0 1 3.3 -3.3 a 3.4 3.4 0 0 1 3.3 3.3 v 42.5 c 0 14.3 8.1 28.5 24 28.5 c 22.3 0 27.6 -20.9 27.6 -44 V 119.9 a 3.35 3.35 0 0 1 4.5 -3.1 a 3.63 3.63 0 0 1 2.1 3.3 Z" stroke-linecap="round" />
    </g>
            <g transform="matrix(1 0 0 1 478.35 19.91)" id="Layer_1-2"  >
    <path style="stroke: none; stroke-width: 1; stroke-dasharray: none; stroke-linecap: butt; stroke-dashoffset: 0; stroke-linejoin: miter; stroke-miterlimit: 4; fill: rgb(59,59,59); fill-rule: nonzero; opacity: 1;"  transform=" translate(-1018.35, -155.21)" d="M 1080 149.7 v 42.5 a 3.4 3.4 0 0 1 -3.3 3.3 a 3.21 3.21 0 0 1 -3.3 -3.3 V 149.7 c 0 -14.3 -8.1 -28.3 -24 -28.3 c -20 0 -27.6 21.4 -27.6 38 v 32.8 a 3.4 3.4 0 0 1 -3.3 3.3 a 3.21 3.21 0 0 1 -3.3 -3.3 V 149.7 c 0 -14.3 -8.1 -28.3 -24 -28.3 c -20.2 0 -28.5 15.9 -27.8 37.1 c 0 0.5 0.2 1.4 0 1.7 v 31.9 a 3.55 3.55 0 0 1 -3 3.5 a 3.27 3.27 0 0 1 -3.7 -3.3 V 119.8 a 3.55 3.55 0 0 1 3 -3.5 a 3.27 3.27 0 0 1 3.7 3.3 v 12.1 c 5.7 -10.2 15.9 -16.9 27.8 -16.9 c 13.5 0 24 8.6 28.3 21.1 c 5.5 -12.4 16.2 -21.1 29.9 -21.1 c 19.5 0 30.6 16.9 30.6 34.9 Z" stroke-linecap="round" />
    </g>
            <g transform="matrix(1 0 0 1 -456.95 8.2)" id="Layer_1-2"  >
    <path style="stroke: none; stroke-width: 1; stroke-dasharray: none; stroke-linecap: butt; stroke-dashoffset: 0; stroke-linejoin: miter; stroke-miterlimit: 4; fill: rgb(0,0,0); fill-rule: nonzero; opacity: 0.6000000238418579;"  transform=" translate(-83.05, -143.5)" d="M 83 100.1 L 0 137.8 l 83 49.1 l 83.1 -49.1 Z" stroke-linecap="round" />
    </g>
            <g transform="matrix(1 0 0 1 -498.5 -41.85)" id="Layer_1-2"  >
    <path style="stroke: none; stroke-width: 1; stroke-dasharray: none; stroke-linecap: butt; stroke-dashoffset: 0; stroke-linejoin: miter; stroke-miterlimit: 4; fill: rgb(0,0,0); fill-rule: nonzero; opacity: 0.44999998807907104;"  transform=" translate(-41.5, -93.45)" d="M 0 137.8 l 83 49.1 V 0 Z" stroke-linecap="round" />
    </g>
            <g transform="matrix(1 0 0 1 -415.45 -41.85)" id="Layer_1-2"  >
    <path style="stroke: none; stroke-width: 1; stroke-dasharray: none; stroke-linecap: butt; stroke-dashoffset: 0; stroke-linejoin: miter; stroke-miterlimit: 4; fill: rgb(0,0,0); fill-rule: nonzero; opacity: 0.800000011920929;"  transform=" translate(-124.55, -93.45)" d="M 83 0 V 186.9 l 83.1 -49.1 Z" stroke-linecap="round" />
    </g>
            <g transform="matrix(1 0 0 1 -498.5 76.8)" id="Layer_1-2"  >
    <path style="stroke: none; stroke-width: 1; stroke-dasharray: none; stroke-linecap: butt; stroke-dashoffset: 0; stroke-linejoin: miter; stroke-miterlimit: 4; fill: rgb(0,0,0); fill-rule: nonzero; opacity: 0.44999998807907104;"  transform=" translate(-41.5, -212.1)" d="M 0 153.6 l 83 117 v -68 Z" stroke-linecap="round" />
    </g>
            <g transform="matrix(1 0 0 1 -415.45 76.8)" id="Layer_1-2"  >
    <path style="stroke: none; stroke-width: 1; stroke-dasharray: none; stroke-linecap: butt; stroke-dashoffset: 0; stroke-linejoin: miter; stroke-miterlimit: 4; fill: rgb(0,0,0); fill-rule: nonzero; opacity: 0.800000011920929;"  transform=" translate(-124.55, -212.1)" d="M 83 202.6 v 68 l 83.1 -117 Z" stroke-linecap="round" />
    </g>
    </g>
    </g>
    <g transform="matrix(1 0 0 1 10 274.5)"  >
    <line style="stroke: rgb(0,0,0); stroke-width: 2; stroke-dasharray: none; stroke-linecap: butt; stroke-dashoffset: 0; stroke-linejoin: miter; stroke-miterlimit: 4; fill: rgb(0,0,0); fill-rule: nonzero; opacity: 1;" vector-effect="non-scaling-stroke"  x1="-1" y1="-0.5" x2="1" y2="0.5" />
    </g>
    </svg>