<?xml version="1.0" encoding="UTF-8"?>
<svg version="1.1" viewBox="0 0 1600 1600"  width="75"  height="75" fill="none" xmlns="http://www.w3.org/2000/svg">
<path transform="translate(0)" d="m0 0h1600v1600h-1600v-1600z"/>
<path transform="translate(765,853)" d="m0 0v37c-8.98 3.37-8.98 3.37-13.4 4.76-0.984 0.31-1.97 0.62-2.98 0.939-1.04 0.326-2.07 0.651-3.14 0.987-29.4 9.36-57 18.2-79.4 40.3-0.646 0.633-1.29 1.27-1.96 1.92-11.2 11.9-18.3 27.3-23.2 42.6-0.25 0.771-0.501 1.54-0.759 2.34-5.88 18.9-6.41 39.4-0.0537 58.2 0.22 0.67 0.439 1.34 0.666 2.03 4 12.1 9.13 23.2 18 32.4 1.29 1.52 1.29 1.52 1.29 3.52h2v2h2v2h2v2c0.588 0.28 1.18 0.56 1.78 0.848 2.05 1.07 3.82 2.22 5.69 3.58 7.84 5.63 15.3 10.6 24.5 13.6 0.904 0.304 1.81 0.608 2.74 0.922 41.3 12.1 89.3-12.3 128-25.8 11.7-4.12 23.4-8.14 35.2-12 13.7-4.53 27.4-9.11 41-13.8 0.941-0.319 1.88-0.639 2.85-0.968 12-4.06 23.9-8.2 35.6-12.9 9.5-3.74 9.5-3.74 14.6-1.72 2.06 0.967 4.05 2.01 6.05 3.1 17.8 9.48 36.1 11.6 56.1 11.2 0.929-0.00516 1.86-0.0103 2.82-0.0156 20-0.795 40.7-9.67 56.2-22 0.528-0.417 1.06-0.835 1.6-1.26 8.89-7.1 16.4-14.8 23.4-23.7 0.645-0.795 1.29-1.59 1.95-2.41 12.5-16.4 17.4-37.7 19.4-57.9 1.87-7.6 8.53-12.8 13.9-18.1 0.821-0.82 1.64-1.64 2.49-2.49 4.41-4.37 8.89-8.6 13.6-12.6 2.34-2.03 4.49-4.22 6.66-6.44 0.532-0.522 1.06-1.04 1.61-1.58 2.9-2.85 5.68-5.73 8.3-8.84 5.9-6.79 12.4-13 18.8-19.3 8.73-8.6 8.73-8.6 16.9-17.7 1.9-2.14 4.05-3.86 6.36-5.54 0.66 0.33 1.32 0.66 2 1-2.85 28.6-2.85 28.6-5.09 40.5-0.523 2.83-0.916 5.46-0.865 8.35-0.0518 3.3-0.595 6.07-1.39 9.27-1.04 4.29-2.02 8.57-2.88 12.9-5.41 26.7-14.1 52.4-25.8 77-0.336 0.713-0.671 1.43-1.02 2.16-2.22 4.67-4.57 9.27-6.98 13.8-0.446 0.849-0.892 1.7-1.35 2.57-5.94 11.3-12.1 22.2-19.4 32.6-1.33 1.92-2.64 3.85-3.94 5.79-5.68 8.43-11.7 16.5-18 24.4-1.2 1.49-2.39 2.98-3.58 4.48-7.16 8.91-14.8 17.4-23 25.4-1.74 1.77-3.34 3.61-4.94 5.5-3.58 4.11-7.4 7.87-11.4 11.6-0.697 0.648-1.39 1.3-2.11 1.96-10.9 10-22.2 19.2-34.3 27.7-0.633 0.448-1.27 0.897-1.92 1.36-19.6 13.8-39.8 26.6-61.7 36.5-1.78 0.815-3.54 1.65-5.31 2.48-7.95 3.75-16 6.99-24.3 9.99-0.643 0.234-1.29 0.468-1.95 0.71-18.9 6.89-38.2 12.8-57.8 17.4-1.35 0.325-2.7 0.666-4.04 1.02-6.23 1.66-12.5 2.44-18.9 3.24-4.76 0.636-9.29 1.5-13.9 2.76-6.7 1.74-13.3 2.22-20.2 2.6-1.27 0.0778-2.53 0.156-3.84 0.236-3.72 0.225-7.44 0.434-11.2 0.639-1.95 0.114-3.89 0.229-5.84 0.344-1.7 0.0951-3.4 0.189-5.1 0.281-0.724 0.0401-1.45 0.0802-2.19 0.122-63.9 3.12-135-10.8-192-39.9-2.45-1.25-4.73-2.19-7.35-3.14-4.67-1.73-9.01-3.96-13.4-6.3-0.829-0.44-1.66-0.88-2.51-1.33-13-6.95-25.3-14.7-37.4-23-0.905-0.617-1.81-1.23-2.74-1.87-9.19-6.36-18.1-13.1-26.8-20.1-1.76-1.42-3.53-2.81-5.31-4.2-0.918-0.715-1.84-1.43-2.78-2.17-1.26-0.971-1.26-0.971-2.54-1.96-0.606-0.549-1.21-1.1-1.84-1.66v-2c-0.843-0.371-0.843-0.371-1.7-0.75-2.69-1.46-4.76-3.22-7.05-5.25-0.799-0.701-1.6-1.4-2.42-2.12-1.83-1.88-1.83-1.88-1.83-3.88-0.536-0.206-1.07-0.412-1.62-0.625-3.29-1.91-5.97-4.42-8.38-7.38v-2h-2c-1.23-1.22-1.23-1.22-2.75-3.06-2.38-2.82-4.81-5.55-7.37-8.21-8.71-9.08-16.4-18.6-23.9-28.7-0.968-1.29-1.94-2.59-2.91-3.88-12.8-17.1-24-35-33.8-54-0.348-0.648-0.695-1.3-1.05-1.96-1.32-2.61-2.18-4.81-2.35-7.75 1.82-3.81 4.88-5.7 8.27-8.1 0.72-0.523 1.44-1.05 2.18-1.58 7.1-5.11 14.3-10 21.7-14.7 0.634-0.41 1.27-0.819 1.92-1.24 9.72-6.26 19.7-12 29.8-17.5 2.13-1.16 4.24-2.33 6.35-3.51 16.4-9.04 33.7-16.3 50.9-23.7 0.662-0.287 1.32-0.574 2.01-0.87 11.8-5.11 23.6-10.1 35.7-14.5 3.46-1.27 6.91-2.59 10.3-3.92 1.1-0.428 2.21-0.856 3.34-1.3 2.14-0.832 4.28-1.67 6.42-2.5 8.2-3.18 16.5-6.1 24.8-8.98 5.48-1.91 10.9-3.85 16.4-5.79 36.7-13 73.4-25.9 111-37.4 2.9-0.899 5.75-1.82 8.58-2.91 2.85-0.792 2.85-0.792 7.85 0.208z" fill="#C6D9E4"/>
<path transform="translate(976,452)" d="m0 0c0.728 0.325 1.46 0.651 2.2 0.986 15.9 7.11 31.3 15.3 45.8 25 1.15 0.755 2.31 1.51 3.46 2.26 9.07 5.95 17.9 12.2 26.5 18.7 0.831 0.618 0.831 0.618 1.68 1.25 21.4 15.9 42 34.4 59.3 54.8 0.901 1.04 1.8 2.08 2.71 3.11 9.71 11.2 18.9 22.6 27.2 34.9 1.79 2.63 3.63 5.23 5.48 7.82 3.1 4.45 6.11 8.95 9.06 13.5 0.687 1.02 0.687 1.02 1.39 2.07 1.81 2.83 3.04 4.88 3.37 8.24-2.02 3.82-5.27 5.71-8.82 8.06-0.764 0.522-1.53 1.04-2.32 1.58-17.3 11.7-35.1 22.1-54.1 30.8-1.83 0.844-3.65 1.72-5.46 2.59-21.9 10.5-44.8 18.9-67.5 27.3-1.19 0.448-2.39 0.897-3.62 1.36-24.2 9.07-48.6 17.2-73.2 25.2-1.37 0.446-1.37 0.446-2.77 0.9-3.7 1.2-7.39 2.4-11.1 3.6-9.12 2.95-18.2 5.92-27.3 9.09-0.682 0.239-1.36 0.478-2.07 0.724-3.11 1.09-6.22 2.2-9.32 3.32-1.07 0.379-2.13 0.758-3.23 1.15-0.91 0.33-1.82 0.66-2.76 1-3 0.784-5.58 0.887-8.66 0.696-2.61-2.61-1.49-9.85-1.62-13.4-0.0516-1.14-0.103-2.29-0.156-3.46-0.625-16.1-0.625-16.1 0.781-21.2 3.37-3.17 7.36-4.25 11.7-5.62 13.5-4.55 25.6-10.9 36.3-20.4 0.596-0.454 1.19-0.908 1.8-1.38 19.8-15.3 29-41.9 32.7-65.6 0.271-2.33 0.439-4.63 0.531-6.98 0.04-0.891 0.0799-1.78 0.121-2.7 0.596-26.3-8.06-51.1-25.3-71-1.82-2.28-1.82-2.28-2.82-5.28h-2v-2c-0.584-0.257-1.17-0.513-1.77-0.777-2.43-1.33-3.97-2.83-5.92-4.79-13-11.9-32.8-19.5-50.3-20.4-0.951-0.0529-1.9-0.106-2.88-0.16-9-0.254-17.4 1.22-26.1 3.16-1.23 0.267-2.46 0.534-3.73 0.809-11.4 2.65-22.3 6.43-33.4 10.2-3.32 1.13-6.66 2.24-9.99 3.34-11.2 3.7-22.4 7.53-33.5 11.3-0.882 0.301-1.76 0.602-2.67 0.913-9.49 3.24-19 6.49-28.5 9.76-25.6 8.81-25.6 8.81-36.9 12.3-5.5 1.72-11 3.5-16.4 5.34-1.66 0.555-3.31 1.11-4.97 1.66-3.32 1.11-6.64 2.23-9.95 3.35-1.54 0.516-3.07 1.03-4.61 1.55-0.717 0.243-1.43 0.487-2.17 0.738-5 1.68-5 1.68-7.23 1.68-0.0632 0.615-0.126 1.23-0.191 1.86-0.383 2.53-0.874 4.75-1.81 7.14-2.54 1.62-4.16 2.19-7 3-1.08 0.422-2.15 0.843-3.26 1.28-9.8 3.82-16.4 4.68-26.5 2.23-23.4-5.39-47.7 0.988-68.2 12.5-4.25 2.67-8.13 5.81-12 9-0.968 0.755-1.94 1.51-2.93 2.29-22 17.4-36.8 45.2-40.8 72.9-0.276 2.93-0.276 2.93-0.203 6.3-0.044 6.85-0.481 10.8-5.4 15.8-1.84 1.6-3.72 3.17-5.62 4.69-0.945 0.781-1.89 1.56-2.86 2.37-1.86 1.53-3.73 3.04-5.61 4.54-2.81 2.32-5.34 4.8-7.87 7.42-2.39 2.4-4.94 4.59-7.5 6.8-2.37 2.06-4.7 4.15-7.04 6.25-0.844 0.761-1.69 1.52-2.56 2.3-1.68 1.52-3.36 3.05-5.04 4.58-4.15 3.77-8.34 7.43-12.7 10.9-7.96 6.44-15.3 13.6-22.7 20.6-1.8 1.7-3.6 3.39-5.41 5.07-0.545 0.518-1.09 1.04-1.65 1.57-3.81 3.56-3.81 3.56-6.04 3.56-0.268 0.619-0.536 1.24-0.812 1.88-1.19 2.12-1.19 2.12-4.19 4.12h-3c-9.41-18.8 10.9-70.5 17.4-90.2 3.92-11.5 8.49-22.7 13.6-33.8 0.377-0.842 0.754-1.68 1.14-2.55 14.5-32.2 34.1-62.5 56.9-89.4 0.534-0.637 1.07-1.27 1.62-1.93 10.1-12 10.1-12 15.7-17.4 1.73-1.74 3.31-3.55 4.9-5.42 3.63-4.18 7.53-7.96 11.6-11.7 0.704-0.653 1.41-1.31 2.13-1.98 1.39-1.29 2.79-2.58 4.18-3.86 1.55-1.43 3.1-2.86 4.64-4.3 6.76-6.22 14-11.8 21.2-17.4 1.45-1.13 2.91-2.25 4.36-3.38 7.06-5.46 14.1-10.8 21.6-15.6 1.14-0.767 2.27-1.53 3.4-2.3 55.9-37.6 122-58 189-66.7 0.871-0.12 1.74-0.24 2.64-0.364 72.9-9.76 150 6.19 216 36.4z" fill="#FBFCFE"/>
<path transform="translate(1192,690)" d="m0 0c4.62 3.66 6.03 8.44 7.94 13.8 0.346 0.965 0.693 1.93 1.05 2.92 3.66 10.5 5.95 21.3 8.01 32.3 0.246 1.24 0.492 2.48 0.746 3.76 0.513 2.77 0.992 5.44 1.25 8.24 0.119 0.728 0.237 1.46 0.359 2.21 0.41 4.12 0.345 6.76-2.03 10.3-2.36 2.53-4.82 4.86-7.39 7.17-1.7 1.59-3.4 3.19-5.1 4.79-0.824 0.767-1.65 1.53-2.5 2.32-2.8 2.7-5.34 5.56-7.86 8.53-5.02 5.87-10.8 11-16.6 16-2.47 2.27-4.55 4.79-6.63 7.42-0.405 0.424-0.81 0.848-1.23 1.29h-2c-0.214 0.54-0.428 1.08-0.648 1.64-1.84 3.21-4.35 5.61-6.98 8.18-0.809 0.799-0.809 0.799-1.63 1.61-3.54 3.47-7.18 6.78-10.9 10-4.24 3.7-8.1 7.72-11.7 12-5.2 5.97-10.9 11.5-16.5 17.1-1.12 1.12-2.25 2.24-3.37 3.36-2.73 2.72-5.46 5.43-8.19 8.14-4.04-1.51-6.55-3.15-9.69-6.12-21.7-20-46.8-31.7-76.6-30.8-19.6 0.926-37.7 6.25-54.7 15.9-0.981 0.543-1.96 1.09-2.97 1.64-24.8 14.6-41.9 40.4-50 67.5-4.42 17.5-3.82 34.9 1.1 52.2 0.848 3.69 0.9 6.88 0.84 10.7-17 6.09-34.1 12.1-51.3 17.8-18.8 6.2-37.5 12.9-56.1 19.5-6.15 2.2-12.3 4.39-18.5 6.55-3.43 1.21-6.86 2.42-10.3 3.66-3.44 1.24-6.89 2.46-10.3 3.66-1.38 0.484-2.75 0.976-4.12 1.48-12.2 4.45-24.6 7.36-37 1.81-8.93-5.18-13.3-12.2-16.1-22-1.13-11 1.42-21.5 8.09-30.5 5.06-6.03 10.5-9.65 17.5-13 0.628-0.304 1.26-0.609 1.9-0.922 7.36-3.36 15.1-5.69 22.8-8.21 3.98-1.31 7.94-2.67 11.9-4.03 1.2-0.41 1.2-0.41 2.42-0.829 2.5-0.856 5-1.71 7.5-2.57 10.5-3.62 21.1-7.22 31.7-10.7 1.2-0.397 1.2-0.397 2.43-0.802 3.76-1.24 7.52-2.47 11.3-3.69 7.23-2.36 14.3-4.93 21.4-7.79 0.699-0.282 1.4-0.564 2.12-0.854 12.9-5.36 24.5-15.4 30-28.5 7.43-20.8 4.78-45.2 4.59-66.9-0.0301-3.74-0.0479-7.47-0.0642-11.2-0.0202-1.72-0.0202-1.72-0.0408-3.47-0.00507-1.59-0.00507-1.59-0.0102-3.21-0.00746-0.929-0.0149-1.86-0.0226-2.81 0.251-2.66 0.777-4.25 2.23-6.48 2.51-1.32 2.51-1.32 5.68-2.45 1.17-0.422 2.35-0.844 3.56-1.28 5.58-1.88 11.2-3.68 16.8-5.4 3.51-1.07 7.01-2.16 10.5-3.24 0.709-0.219 1.42-0.438 2.15-0.664 6.97-2.16 13.9-4.4 20.9-6.64 8.12-2.63 16.3-5.18 24.4-7.62 16.1-4.84 32.1-10.3 48-15.7 1.21-0.41 2.42-0.821 3.67-1.24 17.5-5.96 35-12.3 52.3-18.8 0.957-0.354 1.91-0.708 2.9-1.07 40.8-15.1 82.6-32 119-55.9z" fill="#FBFCFE"/>
<path transform="translate(881 568)" d="m0 0c6.81 5.22 12.6 14.1 15.1 22.2 1.34 11.8-0.224 22.9-7.63 32.5-11 12-28.7 15.9-43.8 20.4-2.83 0.832-5.66 1.67-8.48 2.51-0.675 0.2-1.35 0.4-2.04 0.607-4.89 1.47-9.68 3.14-14.5 4.93-2.78 1.02-5.6 1.8-8.45 2.58-16 4.91-30.6 13.1-38.8 28.2-6.54 12.9-6.32 27.2-6.41 41.3-0.0188 1.73-0.0383 3.46-0.0587 5.19-0.0509 4.51-0.0907 9.02-0.128 13.5-0.0403 4.62-0.0913 9.24-0.141 13.9-0.0962 9.03-0.181 18.1-0.258 27.1-1.06 0.331-2.13 0.662-3.22 1-24.4 7.6-48.7 15.6-72.8 24-3.12 1.08-6.24 2.16-9.37 3.23-43 14.7-43 14.7-85.7 30.3-3.19 1.2-6.4 2.34-9.61 3.46-10.1 3.52-20.1 7.31-30.1 11.2-0.846 0.326-1.69 0.653-2.56 0.989-23.2 8.95-46.1 18.3-68.8 28.6-2.52 1.13-5.04 2.26-7.57 3.38-10.8 4.8-21.4 9.76-31.6 15.8-3.02 1.77-6.14 3.29-9.28 4.82-6.51 3.22-12.6 6.96-18.7 10.9-1.04 0.655-2.08 1.31-3.15 1.98-4.05 2.55-8.09 5.1-12 7.84-2.75 1.74-4.26 1.93-7.45 1.55-5.26-14.5-15-42-9.19-57.1 1.31-2.05 2.62-3.32 4.5-4.86 3.71-3.14 7.31-6.38 10.9-9.69 0.553-0.512 1.11-1.02 1.68-1.55 1.14-1.06 2.28-2.11 3.42-3.17 21.9-20.3 21.9-20.3 31.6-28.7 2.17-1.92 4.3-3.88 6.42-5.85 5.21-4.83 10.5-9.41 16.1-13.9 3.48-2.87 6.8-5.9 10.1-8.94 2.55-2.27 5.17-4.41 7.83-6.55 4.81-3.89 9.33-8.01 13.8-12.2 4.29-3.99 8.76-7.69 13.3-11.3 3.14-2.64 5.91-5.53 8.65-8.58 2.38-1.97 3.75-2.52 6.85-2.53 2.4 1.77 2.4 1.77 4.94 4.38 13.7 13.3 31.7 21.9 50.1 26.6 0.724 0.188 1.45 0.375 2.19 0.569 7.45 1.72 14.8 1.78 22.4 1.74 0.665-0.00216 1.33-0.00431 2.01-0.00653 16.3-0.0848 30.4-2.88 45.4-9.31 1.17-0.503 2.35-1.01 3.55-1.52 22-10.2 41-28 50.4-50.5 0.678-1.93 1.34-3.87 2-5.81 1.58-4.5 3.27-7.09 7-10.2 9.99-9.46 15.6-18.6 16.1-32.5 0.00951-1.31 0.019-2.61 0.0288-3.96 0.00669-0.726 0.0134-1.45 0.0203-2.2 0.014-1.57 0.0259-3.13 0.0359-4.7 0.0165-2.48 0.0397-4.96 0.0649-7.44 0.0706-7.05 0.131-14.1 0.182-21.1 0.0318-4.32 0.0731-8.64 0.12-13 0.016-1.64 0.0283-3.29 0.0369-4.93 0.0122-2.3 0.0363-4.59 0.0631-6.89 0.0103-1.31 0.0206-2.61 0.0312-3.96 0.254-3.07 0.539-4.78 2.27-7.29 2.34-1.32 2.34-1.32 5.28-2.45 1.08-0.422 2.17-0.844 3.28-1.28 5.64-2.08 11.3-4.08 17-6.02 1.26-0.432 2.52-0.864 3.79-1.3 11.8-4.03 23.6-7.97 35.4-11.9 3.48-1.16 6.96-2.32 10.4-3.48 7.63-2.54 15.3-5.07 22.9-7.56 1.48-0.483 2.96-0.969 4.43-1.46 34.3-11.3 34.3-11.3 50-1.58z" fill="#FCFDFF"/>
<path transform="translate(765,853)" d="m0 0v37c-8.98 3.37-8.98 3.37-13.4 4.76-0.984 0.31-1.97 0.62-2.98 0.939-1.55 0.488-1.55 0.488-3.14 0.987-29.4 9.36-57 18.2-79.4 40.3-0.646 0.633-1.29 1.27-1.96 1.92-13.7 14.5-20.4 33.3-26 52.1-0.33-0.99-0.66-1.98-1-3-1.32 0.33-2.64 0.66-4 1v-3c-0.665-0.25-1.33-0.5-2.02-0.758-4.37-1.82-8.54-4-12.8-6.14-3.5-1.77-7.02-3.46-10.6-5.03-5.02-2.2-9.84-4.74-14.7-7.32-6.44-3.41-12.9-6.77-19.4-10-11.9-5.93-23.4-12.3-34.5-19.8v-2c-0.99-0.33-1.98-0.66-3-1v-2c1.21-0.485 2.42-0.969 3.67-1.47 1.2-0.479 1.2-0.479 2.42-0.968 1.81-0.722 3.61-1.44 5.42-2.17 4.4-1.76 8.79-3.52 13.2-5.29 9.58-3.86 19.2-7.65 28.8-11.4 1.29-0.504 2.59-1.01 3.88-1.52 9.36-3.66 18.8-7.05 28.3-10.3 5.45-1.89 10.9-3.82 16.3-5.76 36.7-13 73.4-25.9 111-37.4 2.9-0.899 5.75-1.82 8.58-2.91 2.85-0.792 2.85-0.792 7.85 0.208z" fill="#FCFDFF"/>
<path transform="translate(0)" d="m0 0h1600v1600h-1600v-1600zm1 1v1597l1589 1c1.93-4.7 1.93-4.7 2.12-9.31l-0.125-3.69c4.75-1 4.75-1 7-1v-1584h-1598z" fill="#000002"/>
<path transform="translate(1039 909)" d="m0 0c9.98 8.5 16.8 19.6 18.1 32.8 0.948 13.1-2.29 23.3-10.4 33.6-6.02 6.56-15.8 11.8-24.7 12.6-16.1 0.433-26.3-1.35-38.9-12.2-3.31-3.66-5.54-7.65-7.69-12.1-0.307-0.612-0.615-1.22-0.932-1.85-4.34-8.78-4.97-19-2.51-28.5 5.09-12.8 13.1-22.5 25.7-28.5 14-4.58 29-5.03 41.3 4.09z" fill="#FCFDFF"/>
<path transform="translate(621,646)" d="m0 0c9.61 5.94 17.6 15.1 21 26 2.27 11 2.71 23.8-3.58 33.4-1.72 2.28-3.52 4.43-5.42 6.57-0.784 0.887-1.57 1.77-2.38 2.69-11.9 10.5-23.3 11.9-38.6 11.3-2.99-0.363-5.12-0.972-8-2-0.603-0.21-1.21-0.42-1.83-0.637-10.6-4.41-18.6-13.5-23.2-23.7-3.23-8.58-3.56-19.8-0.0898-28.4 7.02-14.3 15.1-22.3 29.9-28.4 10.3-2.74 22.9-2.01 32.2 3.14z" fill="#FCFDFF"/>
<path transform="translate(425,837)" d="m0 0c7.23 5.65 12.7 12.5 18.2 19.8 2.1 2.58 4.4 4.85 6.77 7.18 3.33 3.33 6.67 6.67 10 10 1.32 1.31 1.32 1.31 2.67 2.65 6.33 6.37 6.33 6.37 6.33 11.3h2v3c-1.06 0.485-2.13 0.969-3.23 1.47-8.28 3.81-16.3 7.81-24.1 12.5-3.02 1.77-6.14 3.29-9.28 4.82-6.51 3.22-12.6 6.96-18.7 10.9-1.04 0.655-2.08 1.31-3.15 1.98-4.05 2.55-8.09 5.1-12 7.84-2.75 1.74-4.26 1.93-7.45 1.55-5.26-14.5-15-42-9.19-57.1 1.31-2.05 2.62-3.32 4.5-4.86 3.71-3.14 7.31-6.38 10.9-9.69 0.55-0.509 1.1-1.02 1.67-1.54 2.3-2.13 4.61-4.27 6.91-6.41 1.16-1.08 2.33-2.16 3.49-3.24 1.09-1.01 2.17-2.02 3.26-3.03 3.4-3.15 6.9-6.15 10.5-9.1z" fill="#C5D8E3"/>
<path transform="translate(1213,852)" d="m0 0c0.99 0.33 1.98 0.66 3 1-1.65 17.1-3.76 34.1-7 51-1.07-0.206-2.14-0.413-3.25-0.625-4.29-0.46-4.29-0.46-7.75 1.62-1.68 1.98-1.68 1.98-3.19 4.38-3.67 5.45-7.57 10.7-11.5 15.9-1.36 1.81-2.72 3.64-4.07 5.46-9.15 12.3-18.6 24.4-29 35.8-2.67 2.96-5.24 6-7.81 9.05-12.7 15-12.7 15-19.6 20.8-1.84 1.6-3.47 3.29-5.13 5.08-2.75 2.56-2.75 2.56-6.75 2.56-0.99 0.99-0.99 0.99-2 2v-2h-2c0.918-4.15 2.79-7.64 4.75-11.4 7.78-15.3 11.6-30.7 13.5-47.7 1.93-7.76 8.47-12.9 14-18.3 0.821-0.82 1.64-1.64 2.49-2.49 4.41-4.37 8.89-8.6 13.6-12.6 2.34-2.03 4.49-4.22 6.66-6.44 0.532-0.522 1.06-1.04 1.61-1.58 2.9-2.85 5.68-5.73 8.3-8.84 5.9-6.79 12.4-13 18.8-19.3 8.73-8.62 8.73-8.62 16.9-17.7 1.67-1.95 3.46-3.76 5.31-5.54z" fill="#FBFCFE"/>
<path transform="translate(960 1039)" d="m0 0c0.998 0.487 0.998 0.487 2.02 0.984 2.07 1.51 2.77 2.92 3.73 5.27h-3v3c-5.53 2.57-11.1 4.82-16.8 6.86-2.36 0.851-4.71 1.72-7.06 2.62-12 4.56-12 4.56-17.2 6.02-4.05 1.14-7.85 2.67-11.7 4.28-7.99 3.25-16.1 5.79-24.4 8.22-1.45 0.433-2.9 0.867-4.35 1.3-3.52 1.05-7.04 2.1-10.6 3.14-3.65 1.08-7.3 2.16-10.9 3.25-1.6 0.477-3.21 0.952-4.81 1.42-3.5 1.04-6.92 2.16-10.3 3.46-3.03 1.16-6.02 2.07-9.18 2.8-4.36 1.05-8.67 2.19-13 3.42-33.3 9.49-33.3 9.49-49.6 5.21v-2c0.79-0.26 1.58-0.52 2.39-0.788 16.9-5.56 33.7-11.2 50.4-17.1 12.6-4.44 25.2-8.8 37.9-13 13.7-4.53 27.4-9.11 41-13.8 0.941-0.319 1.88-0.639 2.85-0.968 12-4.06 23.9-8.2 35.6-12.9 6.05-2.38 11-3.81 17.1-0.687z" fill="#FBFCFE"/>
<path transform="translate(1056,935)" d="m0 0c2.58 11.3 1.61 23.8-4.48 33.8-6.77 9.9-15.5 16.7-27.5 19.2-15.6 1.29-25.9-0.597-38.6-9.9-2.52-2.16-4.46-4.44-6.45-7.1 0.33-0.66 0.66-1.32 1-2 0.33-0.99 0.66-1.98 1-3 0.887-0.124 1.77-0.247 2.69-0.375 3.2-0.471 3.2-0.471 5.52-1.61 3.54-1.28 7.01-1.51 10.7-1.82 18.7-1.91 34.5-10.6 46.4-25.2 3.53-4.03 5.04-5.05 9.62-2z" fill="#C6D9E4"/>
<path transform="translate(737 1015)" d="m0 0c3.44 0.378 6.88 0.749 10.3 1.12 0.837 0.0912 1.67 0.182 2.54 0.276 6.33 0.669 12.6 1.1 19 1.31 4.72 0.202 8.41 0.943 12.3 3.74 1.6 2.28 1.27 3.96 1.19 6.69-49.1 16.4-49.1 16.4-61.6 10.4-7.86-4.56-12.7-10.7-15.4-19.4-0.0262-1.67-0.0293-3.33 0-5 10.7-1.58 21-0.332 31.7 0.875z" fill="#C5D8E3"/>
<path transform="translate(815,1233)" d="m0 0h35c0.495 0.99 0.495 0.99 1 2-3.94 1.97-8.78 1.71-13.1 2.06-1.08 0.0894-2.15 0.179-3.26 0.271-8.56 0.67-17 0.894-25.6 0.667 0.33-0.66 0.66-1.32 1-2 1.33-0.333 2.67-0.667 4-1 0.33-0.66 0.66-1.32 1-2z" fill="#F8FAFD"/>
<path transform="translate(886,1228)" d="m0 0c0.33 0.66 0.66 1.32 1 2-10.4 1.48-10.4 1.48-21 3 0.33-0.99 0.66-1.98 1-3 3.71-1.24 7.31-1.36 11.2-1.56 0.75-0.0432 1.5-0.0864 2.27-0.131 1.85-0.106 3.69-0.207 5.54-0.307z" fill="#FCFDFF"/>
</svg>
