<?xml version="1.0" encoding="UTF-8"?>
<svg xmlns="http://www.w3.org/2000/svg" xmlns:xlink="http://www.w3.org/1999/xlink" version="1.1" width="300" height="100" viewBox="0 0 300 100" xml:space="preserve">
	<desc>Created with Fabric.js 3.6.6</desc>
	<defs>
	</defs>
	<g transform="matrix(0.48 0 0 0.48 149.82 50.11)"  >
	<g style=""   >
			<g transform="matrix(1 0 0 1 -239.05 -0.03)"  >
	<path style="stroke: none; stroke-width: 1; stroke-dasharray: none; stroke-linecap: butt; stroke-dashoffset: 0; stroke-linejoin: miter; stroke-miterlimit: 4; fill: rgb(232,65,66); fill-rule: nonzero; opacity: 1;"  transform=" translate(-0.45, -61.28)" d="M 0 0 C 1.12148438 -0.02900391 2.24296875 -0.05800781 3.3984375 -0.08789062 C 20.04082423 -0.21280461 33.61001422 7.02053126 45.5 18.3125 C 58.91940772 33.53658668 62.50432282 50.08716215 61.69091797 69.72363281 C 60.66130037 83.68535281 52.66282474 97.89983104 42.5 107.3125 C 25.50416466 121.56623709 9.00454398 123.62101467 -12.5 122.3125 C -25.63344446 120.81682574 -39.33511435 111.42666015 -47.5 101.3125 C -56.68696068 88.84448194 -60.68444314 77.07687775 -60.8125 61.8125 C -60.84150391 60.69101562 -60.87050781 59.56953125 -60.90039062 58.4140625 C -61.02543438 41.75438723 -53.85969698 27.78679106 -42.3515625 16.04296875 C -30.18422974 4.39233094 -16.47782597 0.1382368 0 0 Z" stroke-linecap="round" />
	</g>
			<g transform="matrix(1 0 0 1 -250.16 -6.95)"  >
	<path style="stroke: none; stroke-width: 1; stroke-dasharray: none; stroke-linecap: butt; stroke-dashoffset: 0; stroke-linejoin: miter; stroke-miterlimit: 4; fill: rgb(254,251,251); fill-rule: nonzero; opacity: 1;"  transform=" translate(9.16, -31.05)" d="M 0 0 C 2.19921875 0.02734375 2.19921875 0.02734375 5 1 C 6.99203644 3.30481636 8.37146025 5.88902359 9.8125 8.5625 C 10.42254883 9.59987305 10.42254883 9.59987305 11.04492188 10.65820312 C 13.64114606 15.34013346 15.3610076 19.63543216 14 25 C 11.94453159 29.67145031 9.44215901 34.03725522 6.875 38.4375 C 6.20163557 39.62480757 5.52974877 40.81295442 4.859375 42.00195312 C -5.49645649 60.24822825 -5.49645649 60.24822825 -9 62 C -10.7404417 62.08449628 -12.48409722 62.10723024 -14.2265625 62.09765625 C -15.2578125 62.09443359 -16.2890625 62.09121094 -17.3515625 62.08789062 C -18.97191406 62.07532227 -18.97191406 62.07532227 -20.625 62.0625 C -22.25695312 62.05573242 -22.25695312 62.05573242 -23.921875 62.04882812 C -26.61463789 62.03701776 -29.30729188 62.02054778 -32 62 C -32.89309139 59.03218352 -33.20005029 57.49372949 -32.01879883 54.57836914 C -31.50341553 53.73910889 -30.98803223 52.89984863 -30.45703125 52.03515625 C -29.883479 51.08084717 -29.30992676 50.12653809 -28.71899414 49.14331055 C -28.08985107 48.12664307 -27.46070801 47.10997559 -26.8125 46.0625 C -25.5128066 43.90534142 -24.21599113 41.74644659 -22.921875 39.5859375 C -22.26380859 38.49120117 -21.60574219 37.39646484 -20.92773438 36.26855469 C -18.00506391 31.31304403 -15.27955607 26.25778732 -12.5625 21.1875 C -8.65086213 13.92266246 -4.64116345 6.83100817 0 0 Z" stroke-linecap="round" />
	</g>
			<g transform="matrix(1 0 0 1 121 0)"  >
	<path style="stroke: none; stroke-width: 1; stroke-dasharray: none; stroke-linecap: butt; stroke-dashoffset: 0; stroke-linejoin: miter; stroke-miterlimit: 4; fill: rgb(231,64,65); fill-rule: nonzero; opacity: 1;"  transform=" translate(-20, -22)" d="M 0 0 C 3.96 0 7.92 0 12 0 C 15.10464743 3.30993948 16.84299544 5.6315506 18.9375 9.5 C 19.46150391 10.386875 19.98550781 11.27375 20.52539062 12.1875 C 21.51354039 13.86525741 22.4840828 15.55362458 23.42944336 17.25585938 C 25.51471224 20.89932622 27.7750649 24.44010383 30 28 C 30.33 18.76 30.66 9.52 31 0 C 33.97 0 36.94 0 40 0 C 40 14.52 40 29.04 40 44 C 36.37 44 32.74 44 29 44 C 26.48066238 41.20582555 24.84879333 39.07612258 23.078125 35.88134766 C 21.29210324 32.76470733 19.32739211 29.76218215 17.38867188 26.73901367 C 14.90288436 22.84051456 12.45544714 18.9176797 10 15 C 9.67 24.57 9.34 34.14 9 44 C 6.03 44 3.06 44 0 44 C 0 29.48 0 14.96 0 0 Z" stroke-linecap="round" />
	</g>
			<g transform="matrix(1 0 0 1 232 0)"  >
	<path style="stroke: none; stroke-width: 1; stroke-dasharray: none; stroke-linecap: butt; stroke-dashoffset: 0; stroke-linejoin: miter; stroke-miterlimit: 4; fill: rgb(232,65,66); fill-rule: nonzero; opacity: 1;"  transform=" translate(-18, -22)" d="M 0 0 C 2.97 0 5.94 0 9 0 C 9 5.61 9 11.22 9 17 C 14.94 17 20.88 17 27 17 C 27 11.39 27 5.78 27 0 C 29.97 0 32.94 0 36 0 C 36 14.52 36 29.04 36 44 C 33.03 44 30.06 44 27 44 C 27 37.73 27 31.46 27 25 C 21.06 25 15.12 25 9 25 C 9 31.27 9 37.54 9 44 C 6.03 44 3.06 44 0 44 C 0 29.48 0 14.96 0 0 Z" stroke-linecap="round" />
	</g>
			<g transform="matrix(1 0 0 1 285 0)"  >
	<path style="stroke: none; stroke-width: 1; stroke-dasharray: none; stroke-linecap: butt; stroke-dashoffset: 0; stroke-linejoin: miter; stroke-miterlimit: 4; fill: rgb(231,64,65); fill-rule: nonzero; opacity: 1;"  transform=" translate(-15, -22)" d="M 0 0 C 9.9 0 19.8 0 30 0 C 30 2.64 30 5.28 30 8 C 23.07 8 16.14 8 9 8 C 9 10.97 9 13.94 9 17 C 15.6 17 22.2 17 29 17 C 29 19.97 29 22.94 29 26 C 22.4 26 15.8 26 9 26 C 9 29.3 9 32.6 9 36 C 15.93 36 22.86 36 30 36 C 30 38.64 30 41.28 30 44 C 20.1 44 10.2 44 0 44 C 0 29.48 0 14.96 0 0 Z" stroke-linecap="round" />
	</g>
			<g transform="matrix(1 0 0 1 -134.5 0)"  >
	<path style="stroke: none; stroke-width: 1; stroke-dasharray: none; stroke-linecap: butt; stroke-dashoffset: 0; stroke-linejoin: miter; stroke-miterlimit: 4; fill: rgb(231,64,65); fill-rule: nonzero; opacity: 1;"  transform=" translate(-4.5, -22)" d="M 0 0 C 2.97 0 5.94 0 9 0 C 11.56807654 5.94285088 14.13145042 11.88769883 16.69042969 17.83447266 C 17.56217583 19.85847088 18.43521918 21.8819109 19.30957031 23.90478516 C 20.56394007 26.80747073 21.81367676 29.71211213 23.0625 32.6171875 C 23.45622803 33.52556366 23.84995605 34.43393982 24.25561523 35.36984253 C 24.79617554 36.63092331 24.79617554 36.63092331 25.34765625 37.91748047 C 25.66742432 38.65916473 25.98719238 39.400849 26.31665039 40.16500854 C 27 42 27 42 27 44 C 23.7 44 20.4 44 17 44 C 13 36.25 13 36.25 13 34 C 4.585 34.495 4.585 34.495 -4 35 C -5.32 37.97 -6.64 40.94 -8 44 C -11.3 44 -14.6 44 -18 44 C -16.07287204 38.01223027 -13.93259542 32.2313037 -11.42578125 26.46484375 C -11.09708542 25.70071671 -10.76838959 24.93658966 -10.42973328 24.14930725 C -9.3940908 21.74387298 -8.3533965 19.34066466 -7.3125 16.9375 C -6.60317815 15.29246318 -5.8941908 13.64728209 -5.18554688 12.00195312 C -3.46088756 7.99962644 -1.73169865 3.99928569 0 0 Z M 4 12 C 2.35 16.62 0.7 21.24 -1 26 C 2.3 26 5.6 26 9 26 C 8.21824485 21.15311808 6.60155722 16.6233633 5 12 C 4.67 12 4.34 12 4 12 Z" stroke-linecap="round" />
	</g>
			<g transform="matrix(1 0 0 1 -34.5 0)"  >
	<path style="stroke: none; stroke-width: 1; stroke-dasharray: none; stroke-linecap: butt; stroke-dashoffset: 0; stroke-linejoin: miter; stroke-miterlimit: 4; fill: rgb(231,64,65); fill-rule: nonzero; opacity: 1;"  transform=" translate(-4.5, -22)" d="M 0 0 C 2.97 0 5.94 0 9 0 C 11.56807654 5.94285088 14.13145042 11.88769883 16.69042969 17.83447266 C 17.56217583 19.85847088 18.43521918 21.8819109 19.30957031 23.90478516 C 20.56394007 26.80747073 21.81367676 29.71211213 23.0625 32.6171875 C 23.45622803 33.52556366 23.84995605 34.43393982 24.25561523 35.36984253 C 24.79617554 36.63092331 24.79617554 36.63092331 25.34765625 37.91748047 C 25.66742432 38.65916473 25.98719238 39.400849 26.31665039 40.16500854 C 27 42 27 42 27 44 C 23.7 44 20.4 44 17 44 C 13 36.25 13 36.25 13 34 C 4.585 34.495 4.585 34.495 -4 35 C -5.32 37.97 -6.64 40.94 -8 44 C -11.3 44 -14.6 44 -18 44 C -15.33952484 35.23028558 -11.58823387 26.98583749 -7.875 18.625 C -6.90559562 16.43432909 -5.93735055 14.24315569 -4.9704895 12.05136108 C -4.37230512 10.69614226 -3.7725015 9.34163668 -3.17086792 7.98794556 C -2.00146565 5.34515651 -0.91464229 2.74392688 0 0 Z M 4 12 C 2.35 16.62 0.7 21.24 -1 26 C 2.3 26 5.6 26 9 26 C 8.36843005 20.94744036 6.86540627 16.70406799 5 12 C 4.67 12 4.34 12 4 12 Z" stroke-linecap="round" />
	</g>
			<g transform="matrix(1 0 0 1 63.5 -0.05)"  >
	<path style="stroke: none; stroke-width: 1; stroke-dasharray: none; stroke-linecap: butt; stroke-dashoffset: 0; stroke-linejoin: miter; stroke-miterlimit: 4; fill: rgb(231,64,65); fill-rule: nonzero; opacity: 1;"  transform=" translate(-1.65, -22.05)" d="M 0 0 C 2.05078125 0.03255208 4.1015625 0.06510417 6.15234375 0.09765625 C 8.72087451 6.04030867 11.28379497 11.98535695 13.84277344 17.93212891 C 14.71451958 19.95612713 15.58756293 21.97956715 16.46191406 24.00244141 C 17.71628382 26.90512698 18.96602051 29.80976838 20.21484375 32.71484375 C 20.60857178 33.62321991 21.0022998 34.53159607 21.40795898 35.46749878 C 21.94851929 36.72857956 21.94851929 36.72857956 22.5 38.01513672 C 22.81976807 38.75682098 23.13953613 39.49850525 23.46899414 40.26266479 C 24.15234375 42.09765625 24.15234375 42.09765625 24.15234375 44.09765625 C 20.85234375 44.09765625 17.55234375 44.09765625 14.15234375 44.09765625 C 12.83234375 41.12765625 11.51234375 38.15765625 10.15234375 35.09765625 C 4.54234375 35.09765625 -1.06765625 35.09765625 -6.84765625 35.09765625 C -8.16765625 38.06765625 -9.48765625 41.03765625 -10.84765625 44.09765625 C -14.14765625 44.09765625 -17.44765625 44.09765625 -20.84765625 44.09765625 C -17.47041601 35.06729323 -13.82030326 26.19158355 -9.97119141 17.35449219 C -9.08109067 15.30959894 -8.19658223 13.26234521 -7.3125 11.21484375 C -6.74641806 9.9100155 -6.18002418 8.60532254 -5.61328125 7.30078125 C -5.10571289 6.13192383 -4.59814453 4.96306641 -4.07519531 3.75878906 C -2.39983438 0.12684114 -2.39983438 0.12684114 0 0 Z M 1.15234375 12.09765625 C -0.49765625 16.71765625 -2.14765625 21.33765625 -3.84765625 26.09765625 C -0.21765625 26.09765625 3.41234375 26.09765625 7.15234375 26.09765625 C 5.50234375 21.47765625 3.85234375 16.85765625 2.15234375 12.09765625 C 1.82234375 12.09765625 1.49234375 12.09765625 1.15234375 12.09765625 Z" stroke-linecap="round" />
	</g>
			<g transform="matrix(1 0 0 1 178.04 0.03)"  >
	<path style="stroke: none; stroke-width: 1; stroke-dasharray: none; stroke-linecap: butt; stroke-dashoffset: 0; stroke-linejoin: miter; stroke-miterlimit: 4; fill: rgb(231,64,65); fill-rule: nonzero; opacity: 1;"  transform=" translate(16.57, -19.52)" d="M 0 0 C 1.65731354 1.76904254 2.00650891 3.11902858 2.390625 5.484375 C -2.01025606 8.5405424 -2.01025606 8.5405424 -4.609375 8.296875 C -6.609375 7.484375 -6.609375 7.484375 -8.796875 6.296875 C -13.02212298 5.07624781 -16.56169519 5.86530307 -20.609375 7.484375 C -24.38508203 11.16568935 -25.51462299 14.03940684 -25.859375 19.296875 C -25.78706746 24.21378739 -24.30442212 27.72879048 -20.859375 31.296875 C -17.69407952 32.96744761 -15.18469768 33.36108801 -11.609375 33.484375 C -8.42575064 32.1843906 -8.42575064 32.1843906 -5.609375 30.484375 C -3.546875 29.546875 -3.546875 29.546875 -1.609375 29.484375 C 1.140625 31.421875 1.140625 31.421875 3.390625 33.484375 C 1.89584386 37.28927245 -0.30379714 39.14628335 -3.609375 41.484375 C -9.9081864 43.5839788 -17.93183157 43.69497609 -24.046875 40.921875 C -29.2722712 37.81756986 -33.22509691 33.05119169 -35.609375 27.484375 C -37.25700273 20.42311332 -36.73265693 14.04112781 -33.609375 7.484375 C -30.63629348 2.97111465 -27.02081159 -1.30222012 -21.75390625 -3.109375 C -13.84870564 -4.60689934 -6.77135486 -4.60907348 0 0 Z" stroke-linecap="round" />
	</g>
			<g transform="matrix(1 0 0 1 -85 0.04)"  >
	<path style="stroke: none; stroke-width: 1; stroke-dasharray: none; stroke-linecap: butt; stroke-dashoffset: 0; stroke-linejoin: miter; stroke-miterlimit: 4; fill: rgb(231,64,65); fill-rule: nonzero; opacity: 1;"  transform=" translate(-21, -22.04)" d="M 0 0 C 3.63 0 7.26 0 11 0 C 14.3 9.24 17.6 18.48 21 28 C 24.13555742 21.02716345 24.13555742 21.02716345 26.921875 13.96484375 C 27.37626953 12.72250977 27.37626953 12.72250977 27.83984375 11.45507812 C 28.14019531 10.62427734 28.44054687 9.79347656 28.75 8.9375 C 29.06582031 8.07189453 29.38164062 7.20628906 29.70703125 6.31445312 C 30.47416136 4.21065691 31.23748836 2.10547456 32 0 C 35.3 0 38.6 0 42 0 C 41.27369994 4.87205982 39.46890776 9.21845461 37.65625 13.765625 C 37.32709595 14.5996283 36.99794189 15.43363159 36.65881348 16.29290771 C 35.96482441 18.04860876 35.26877685 19.80349735 34.57080078 21.55761719 C 33.49899898 24.25251692 32.43456923 26.95024266 31.37109375 29.6484375 C 30.69574552 31.35433816 30.0199789 33.06007325 29.34375 34.765625 C 29.02394165 35.57598206 28.7041333 36.38633911 28.37463379 37.22125244 C 26.11564177 42.88435823 26.11564177 42.88435823 25 44 C 22.32941149 44.14115161 19.67567762 44.04247107 17 44 C 10.97721342 29.45431123 4.99339599 14.93804962 0 0 Z" stroke-linecap="round" />
	</g>
			<g transform="matrix(1 0 0 1 16.5 0)"  >
	<path style="stroke: none; stroke-width: 1; stroke-dasharray: none; stroke-linecap: butt; stroke-dashoffset: 0; stroke-linejoin: miter; stroke-miterlimit: 4; fill: rgb(232,65,66); fill-rule: nonzero; opacity: 1;"  transform=" translate(-13.5, -22)" d="M 0 0 C 2.97 0 5.94 0 9 0 C 9 11.88 9 23.76 9 36 C 14.94 36 20.88 36 27 36 C 27 38.64 27 41.28 27 44 C 18.09 44 9.18 44 0 44 C 0 29.48 0 14.96 0 0 Z" stroke-linecap="round" />
	</g>
			<g transform="matrix(1 0 0 1 -218.12 11.5)"  >
	<path style="stroke: none; stroke-width: 1; stroke-dasharray: none; stroke-linecap: butt; stroke-dashoffset: 0; stroke-linejoin: miter; stroke-miterlimit: 4; fill: rgb(254,249,249); fill-rule: nonzero; opacity: 1;"  transform=" translate(-1.88, -12.5)" d="M 0 0 C 1.32 0 2.64 0 4 0 C 5.5715332 1.7565918 5.5715332 1.7565918 7.05078125 4.19921875 C 7.58380859 5.07900391 8.11683594 5.95878906 8.66601562 6.86523438 C 9.20935547 7.79658203 9.75269531 8.72792969 10.3125 9.6875 C 10.87517578 10.59951172 11.43785156 11.51152344 12.01757812 12.45117188 C 12.54416016 13.33740234 13.07074219 14.22363281 13.61328125 15.13671875 C 14.09579346 15.94842529 14.57830566 16.76013184 15.07543945 17.59643555 C 16 20 16 20 15 25 C 6.09 25 -2.82 25 -12 25 C -10.87476925 17.12338477 -10.87476925 17.12338477 -8.75 13.6328125 C -8.3065625 12.89289063 -7.863125 12.15296875 -7.40625 11.390625 C -6.9421875 10.64296875 -6.478125 9.8953125 -6 9.125 C -5.5359375 8.35414062 -5.071875 7.58328125 -4.59375 6.7890625 C -1.22237723 1.22237723 -1.22237723 1.22237723 0 0 Z" stroke-linecap="round" />
	</g>
	</g>
	</g>
	</svg>