<svg width="20" height="20" viewBox="0 0 20 20" fill="none" xmlns="http://www.w3.org/2000/svg">
<g clip-path="url(#clip0_11445_4530)">
<path d="M0 10C0 4.47715 4.47715 0 10 0C15.5228 0 20 4.47715 20 10C20 15.5228 15.5228 20 10 20C4.47715 20 0 15.5228 0 10Z" fill="#2E42A5"/>
<path d="M-2.22693 18.571L2.17413 21.0527L20.0999 2.69805L22.4214 -0.989849L17.7151 -1.81931L10.4036 6.09025L4.51856 11.4194L-2.22693 18.571Z" fill="white"/>
<path d="M-1.62439 20.3098L0.617745 21.75L21.5878 -1.33245H18.4395L-1.62439 20.3098Z" fill="#F50100"/>
<path d="M22.2271 18.571L17.826 21.0527L-0.0997791 2.69805L-2.42123 -0.989849L2.28506 -1.81931L9.59656 6.09025L15.4816 11.4194L22.2271 18.571Z" fill="white"/>
<path d="M22.0768 19.8191L19.8347 21.2593L10.9055 11.3765L8.25813 10.2723L-2.64465 -0.977032H0.503569L11.4002 10.0053L14.2946 11.3293L22.0768 19.8191Z" fill="#F50100"/>
<path d="M6.66671 7.50016H7.50004V6.66683V-5.83317H12.5V6.66683V7.50016H13.3334H20.8334V12.5002H13.3334H12.5V13.3335V25.8335H7.50004V13.3335V12.5002H6.66671H-0.833293V7.50016H6.66671Z" fill="#F50100" stroke="white" stroke-width="1.66667"/>
</g>
<defs>
<clipPath id="clip0_11445_4530">
<path d="M0 10C0 4.47715 4.47715 0 10 0C15.5228 0 20 4.47715 20 10C20 15.5228 15.5228 20 10 20C4.47715 20 0 15.5228 0 10Z" fill="white"/>
</clipPath>
</defs>
</svg>
