<svg width="21" height="20" viewBox="0 0 21 20" fill="none" xmlns="http://www.w3.org/2000/svg">
<g clip-path="url(#clip0_12362_2389)">
<path d="M0.5 10C0.5 4.47715 4.97715 0 10.5 0C16.0228 0 20.5 4.47715 20.5 10C20.5 15.5228 16.0228 20 10.5 20C4.97715 20 0.5 15.5228 0.5 10Z" fill="#FFD133"/>
<path fill-rule="evenodd" clip-rule="evenodd" d="M-3.71777 6H25.2822V-2H-3.71777V6Z" fill="#DD172C"/>
<path fill-rule="evenodd" clip-rule="evenodd" d="M-3.71777 21H25.2822V14H-3.71777V21Z" fill="#DD172C"/>
<path fill-rule="evenodd" clip-rule="evenodd" d="M11.2388 9.49049H9.4835L9.64299 11.4044C9.66993 11.7276 9.94016 11.9763 10.2645 11.9763H10.4578C10.7822 11.9763 11.0524 11.7276 11.0793 11.4044L11.2388 9.49049ZM9.4835 8.86678C9.1186 8.86678 8.83164 9.17865 8.86194 9.54228L9.02143 11.4562C9.07531 12.1027 9.61577 12.6 10.2645 12.6H10.4578C11.1065 12.6 11.647 12.1027 11.7009 11.4562L11.8604 9.54228C11.8907 9.17865 11.6037 8.86678 11.2388 8.86678H9.4835Z" fill="#A41517"/>
<path fill-rule="evenodd" clip-rule="evenodd" d="M9.11652 10.1108H11.6053V10.733H10.9831L10.3609 11.9774L9.73873 10.733H9.11652V10.1108Z" fill="#A41517"/>
<path d="M7.25 8.86647C7.25 8.52283 7.52857 8.24426 7.8722 8.24426C8.21584 8.24426 8.49441 8.52283 8.49441 8.86647V11.9775C8.49441 12.3211 8.21584 12.5997 7.8722 12.5997C7.52857 12.5997 7.25 12.3211 7.25 11.9775V8.86647Z" fill="#A41517"/>
<path d="M12.2273 8.86647C12.2273 8.52283 12.5059 8.24426 12.8495 8.24426C13.1932 8.24426 13.4717 8.52283 13.4717 8.86647V11.9775C13.4717 12.3211 13.1932 12.5997 12.8495 12.5997C12.5059 12.5997 12.2273 12.3211 12.2273 11.9775V8.86647Z" fill="#A41517"/>
<path d="M9.11652 7.99553C9.11652 7.44571 9.56224 7 10.112 7H10.6098C11.1596 7 11.6053 7.44571 11.6053 7.99553C11.6053 8.13298 11.4939 8.24441 11.3565 8.24441H9.36541C9.22795 8.24441 9.11652 8.13298 9.11652 7.99553Z" fill="#A41517"/>
</g>
<defs>
<clipPath id="clip0_12362_2389">
<path d="M0.5 10C0.5 4.47715 4.97715 0 10.5 0C16.0228 0 20.5 4.47715 20.5 10C20.5 15.5228 16.0228 20 10.5 20C4.97715 20 0.5 15.5228 0.5 10Z" fill="white"/>
</clipPath>
</defs>
</svg>
