<svg xmlns="http://www.w3.org/2000/svg" xmlns:xlink="http://www.w3.org/1999/xlink" version="1.1" width="300" height="100" viewBox="0 0 300 100" xml:space="preserve">
	<desc>Created with Fabric.js 3.6.6</desc>
	<defs>
	</defs>
	<g transform="matrix(0.49 0 0 0.46 145.81 51.59)"  >
	<g style=""   >
			<g transform="matrix(1 0 0 1 -195.44 0.29)"  >
	<path style="stroke: none; stroke-width: 1; stroke-dasharray: none; stroke-linecap: butt; stroke-dashoffset: 0; stroke-linejoin: miter; stroke-miterlimit: 4; fill: rgb(122,62,227); fill-rule: nonzero; opacity: 1;"  transform=" translate(-24.59, -60.6)" d="M 0 0 C 0.9597876 0.54833496 1.9195752 1.09666992 2.90844727 1.66162109 C 3.97772461 2.26619141 5.04700195 2.87076172 6.14868164 3.49365234 C 7.24631836 4.13431641 8.34395508 4.77498047 9.47485352 5.43505859 C 10.56862305 6.05251953 11.66239258 6.66998047 12.78930664 7.30615234 C 31.06979213 17.76157752 31.06979213 17.76157752 32.60766602 22.60693359 C 32.82036133 23.69748047 32.82036133 23.69748047 33.03735352 24.81005859 C 33.22040039 25.64021484 33.40344727 26.47037109 33.59204102 27.32568359 C 33.96989128 30.55123466 34.01144489 32.6903915 33.03735352 35.81005859 C 28.67000325 39.71318701 23.05447704 43.81005859 17.03735352 43.81005859 C 17.22040039 42.87806641 17.40344727 41.94607422 17.59204102 40.98583984 C 17.96948685 36.43347484 18.19594441 32.9231138 16.03735352 28.81005859 C 12.84967953 25.66358838 9.316131 23.40100303 5.47485352 21.12255859 C 4.49822754 20.52805908 3.52160156 19.93355957 2.51538086 19.32104492 C -2.55859615 16.40919588 -2.55859615 16.40919588 -8.18310547 16.27246094 C -10.22868891 17.31462135 -12.05442013 18.53716374 -13.96264648 19.81005859 C -15.29274705 20.30307822 -16.63599108 20.76206671 -17.98999023 21.18505859 C -22.48852459 22.91983146 -26.27275582 24.66094002 -28.96264648 28.81005859 C -31.18645174 37.88638498 -30.52047 47.55056074 -29.96264648 56.81005859 C -28.61082275 57.23134033 -28.61082275 57.23134033 -27.23168945 57.66113281 C -24.4414225 58.64178974 -22.1777953 59.6809693 -19.65795898 61.19287109 C -18.91030273 61.63759766 -18.16264648 62.08232422 -17.39233398 62.54052734 C -16.63178711 63.00072266 -15.87124023 63.46091797 -15.08764648 63.93505859 C -13.91202148 64.63695313 -13.91202148 64.63695313 -12.71264648 65.35302734 C -10.79282177 66.50023968 -8.87634087 67.65265929 -6.96264648 68.81005859 C -6.24206055 68.39498047 -5.52147461 67.97990234 -4.77905273 67.55224609 C 4.26811017 62.36071684 13.36502477 57.26127738 22.4777832 52.18579102 C 27.57130635 49.34146046 32.64395152 46.47275406 37.66235352 43.49755859 C 38.5219165 42.98942627 39.38147949 42.48129395 40.26708984 41.95776367 C 41.85778133 41.012703 43.44390727 40.05989694 45.02441406 39.09790039 C 49.99423579 36.14761553 53.96541677 34.11092816 59.86938477 35.45458984 C 63.98003268 37.21339974 67.83612319 39.29685443 71.72485352 41.49755859 C 72.51706299 41.94309082 73.30927246 42.38862305 74.12548828 42.84765625 C 92.43783528 53.21750084 92.43783528 53.21750084 95.03735352 57.81005859 C 95.50896114 60.85635785 95.50538037 63.88032991 95.50610352 66.95849609 C 95.51371704 67.8486441 95.52133057 68.73879211 95.5291748 69.65591431 C 95.53996835 71.53701985 95.54283193 73.41818528 95.53833008 75.29931641 C 95.53735912 78.16850518 95.57895857 81.0350068 95.62329102 83.90380859 C 95.62849939 85.7345322 95.63118619 87.56526508 95.63110352 89.39599609 C 95.64749878 90.24930511 95.66389404 91.10261414 95.68078613 91.98178101 C 95.63346233 96.08834999 95.3932378 98.92174106 92.80029297 102.20874023 C 90.33262026 104.53206379 88.19363301 106.22614766 85.23657227 107.84521484 C 84.34131836 108.34472656 83.44606445 108.84423828 82.52368164 109.35888672 C 81.60006836 109.85839844 80.67645508 110.35791016 79.72485352 110.87255859 C 77.89458881 111.88276124 76.06514922 112.89446038 74.23657227 113.90771484 C 73.35606201 114.39119385 72.47555176 114.87467285 71.56835938 115.37280273 C 68.5760422 117.07201863 65.70035101 118.91443291 62.8449707 120.83349609 C 58.83608064 122.99929299 55.37197755 122.97341575 51.03735352 121.81005859 C 45.79471243 119.37000313 40.95216595 116.20941308 36.09106445 113.09667969 C 34.23782845 111.93565333 32.36824133 110.84993903 30.45141602 109.79833984 C 23.90201328 106.20021118 18.50933859 103.22601382 16.03735352 95.81005859 C 15.96880402 93.91535043 15.95254979 92.0183752 15.97485352 90.12255859 C 15.98387695 89.12869141 15.99290039 88.13482422 16.00219727 87.11083984 C 16.01379883 86.35158203 16.02540039 85.59232422 16.03735352 84.81005859 C 18.32609525 83.47147335 20.61805008 82.13904845 22.91235352 80.81005859 C 23.56333008 80.42849609 24.21430664 80.04693359 24.88500977 79.65380859 C 29.81079102 76.81005859 29.81079102 76.81005859 32.03735352 76.81005859 C 31.7627832 78.20804688 31.7627832 78.20804688 31.48266602 79.63427734 C 31.10540934 84.1843609 30.85011276 87.70874339 33.03735352 91.81005859 C 36.29719515 94.90518613 39.90325131 97.13440444 43.78735352 99.37255859 C 44.78911621 99.95030029 45.79087891 100.52804199 46.82299805 101.12329102 C 51.9531523 104.21689261 51.9531523 104.21689261 57.60791016 104.09155273 C 59.83423643 102.91719975 62.02213431 101.73277744 64.17407227 100.42724609 C 64.91592773 99.98251953 65.6577832 99.53779297 66.42211914 99.07958984 C 67.96931133 98.1426134 69.5161816 97.20510522 71.06274414 96.26708984 C 71.80073242 95.82494141 72.5387207 95.38279297 73.29907227 94.92724609 C 74.30393677 94.31792236 74.30393677 94.31792236 75.32910156 93.69628906 C 77.03735352 92.81005859 77.03735352 92.81005859 79.03735352 92.81005859 C 81.06494355 77.92047348 81.06494355 77.92047348 77.90649414 63.82666016 C 74.58441843 60.5785578 70.35324492 59.26000413 66.03735352 57.81005859 C 64.32934787 56.8239178 62.63818917 55.80730924 60.97485352 54.74755859 C 58.28544117 53.07607015 58.28544117 53.07607015 55.24731445 53.08984375 C 52.54094239 53.97183641 50.25624161 55.22022302 47.77563477 56.61865234 C 46.74720459 57.19607178 45.71877441 57.77349121 44.65917969 58.3684082 C 43.56710205 58.98852783 42.47502441 59.60864746 41.34985352 60.24755859 C 40.22877197 60.87992432 39.10769043 61.51229004 37.95263672 62.16381836 C 31.51281376 65.80660709 25.09914963 69.49131683 18.72485352 73.24755859 C 18.04849854 73.64507324 17.37214355 74.04258789 16.67529297 74.45214844 C 13.64061574 76.24309316 10.62818687 78.05834445 7.65063477 79.94287109 C -3.54178102 86.88020284 -3.54178102 86.88020284 -9.96264648 85.81005859 C -14.23635983 84.25541794 -18.0469518 82.10800149 -21.96264648 79.81005859 C -22.90527344 79.26188477 -22.90527344 79.26188477 -23.86694336 78.70263672 C -27.69490799 76.47059834 -31.50634291 74.21269879 -35.26635742 71.86767578 C -36.90729484 70.84456972 -38.56367873 69.84636772 -40.22045898 68.84912109 C -43.56078211 66.36529108 -45.61359465 64.15210069 -46.24755859 59.89837646 C -46.37578953 57.59422677 -46.40462002 55.30918225 -46.39624023 53.00146484 C -46.40148209 52.15712387 -46.40672394 51.3127829 -46.41212463 50.44285583 C -46.41853148 48.66186622 -46.41722517 46.88083421 -46.40869141 45.09985352 C -46.40018435 42.38464495 -46.42895479 39.67154377 -46.46069336 36.95654297 C -46.46230572 35.22151755 -46.46172718 33.48648844 -46.45874023 31.75146484 C -46.46997421 30.94504044 -46.48120819 30.13861603 -46.49278259 29.30775452 C -46.42792832 24.02441182 -45.55822438 20.92992113 -41.96264648 16.81005859 C -39.21704102 14.79956055 -39.21704102 14.79956055 -36.09545898 13.04833984 C -34.96237305 12.40445313 -33.82928711 11.76056641 -32.66186523 11.09716797 C -31.47056786 10.43876781 -30.27916071 9.78056624 -29.08764648 9.12255859 C -27.90334155 8.45389477 -26.71974063 7.78398242 -25.53686523 7.11279297 C -22.35749641 5.32101474 -19.17388191 3.5440631 -15.96264648 1.81005859 C -14.99053223 1.24569092 -14.01841797 0.68132324 -13.0168457 0.09985352 C -8.32638256 -1.88093919 -4.72439124 -1.89754289 0 0 Z" stroke-linecap="round" />
	</g>
			<g transform="matrix(1 0 0 1 121.41 10.38)"  >
	<path style="stroke: none; stroke-width: 1; stroke-dasharray: none; stroke-linecap: butt; stroke-dashoffset: 0; stroke-linejoin: miter; stroke-miterlimit: 4; fill: rgb(9,10,12); fill-rule: nonzero; opacity: 1;"  transform=" translate(9.59, -32.89)" d="M 0 0 C 0.33 -0.66 0.66 -1.32 1 -2 C 6.28 -2 11.56 -2 17 -2 C 17.07434703 5.68633933 17.12869623 13.37246771 17.16479492 21.05908203 C 17.17984933 23.67207487 17.2002973 26.28504258 17.22631836 28.89794922 C 17.26284778 32.66119605 17.2797604 36.42410775 17.29296875 40.1875 C 17.30845261 41.34926758 17.32393646 42.51103516 17.33988953 43.70800781 C 17.34149439 51.50263797 16.74147527 57.47524608 11.8125 63.8125 C 3.80216126 70.04276347 -4.85215019 69.36763247 -14.5 69.1875 C -15.90883986 69.17242613 -17.31769532 69.1587425 -18.7265625 69.14648438 C -22.15120902 69.11129965 -25.57565544 69.05749832 -29 69 C -29 64.71 -29 60.42 -29 56 C -27.07414062 55.96261719 -25.14828125 55.92523438 -23.1640625 55.88671875 C -20.65102151 55.82107962 -18.13800156 55.75463159 -15.625 55.6875 C -13.71847656 55.65366211 -13.71847656 55.65366211 -11.7734375 55.61914062 C -10.56171875 55.58369141 -9.35 55.54824219 -8.1015625 55.51171875 C -6.42054443 55.47244263 -6.42054443 55.47244263 -4.70556641 55.43237305 C -3.36631104 55.21834839 -3.36631104 55.21834839 -2 55 C 0.1519437 51.77208445 0.20086443 50.71599191 0 47 C -1.175625 47.495 -2.35125 47.99 -3.5625 48.5 C -9.94015606 50.84966276 -15.41459187 50.42034668 -21.7265625 48.09375 C -27.58830746 45.27366651 -31.75854643 41.29076822 -34.5 35.375 C -37.26154419 27.31129098 -37.24054486 18.03120728 -34.1015625 10.06640625 C -31.352186 4.90888792 -27.73816821 0.41894374 -22.3125 -2 C -14.88307725 -4.23027506 -6.56027327 -4.37351551 0 0 Z M -18.75 14.6875 C -20.94468523 18.74766767 -21.45517872 22.72004232 -20.5625 27.19140625 C -19.45848027 30.59755804 -18.45239951 32.59786711 -15.75 35 C -11.63397236 36.49673732 -8.0479398 36.52661309 -3.8125 35.4375 C 0.22922724 32.23199219 1.82968085 28.38688454 2.4375 23.4375 C 1.86510954 18.94014642 0.26579994 15.93201044 -2.1875 12.1875 C -8.40713961 8.1125637 -13.84048083 9.9533208 -18.75 14.6875 Z" stroke-linecap="round" />
	</g>
			<g transform="matrix(1 0 0 1 -65.31 10.16)"  >
	<path style="stroke: none; stroke-width: 1; stroke-dasharray: none; stroke-linecap: butt; stroke-dashoffset: 0; stroke-linejoin: miter; stroke-miterlimit: 4; fill: rgb(9,10,12); fill-rule: nonzero; opacity: 1;"  transform=" translate(13.75, -34.1)" d="M 0 0 C 6.19233335 3.7363024 10.1104204 8.9881207 12.09375 15.91796875 C 13.74111035 24.77253065 13.22030162 33.6944096 8.30859375 41.40625 C 3.98626571 46.9652114 -1.59124212 49.99187583 -8.4375 51.4375 C -14.69013506 51.91847193 -17.03042574 50.84015285 -23.4375 48.4375 C -23.7675 55.6975 -24.0975 62.9575 -24.4375 70.4375 C -29.7175 70.4375 -34.9975 70.4375 -40.4375 70.4375 C -40.4375 47.0075 -40.4375 23.5775 -40.4375 -0.5625 C -35.1575 -0.5625 -29.8775 -0.5625 -24.4375 -0.5625 C -24.1075 0.0975 -23.7775 0.7575 -23.4375 1.4375 C -22.715625 0.9425 -21.99375 0.4475 -21.25 -0.0625 C -15.01857471 -3.15601042 -6.27523163 -2.80511318 0 0 Z M -22.4375 14.4375 C -25.15870906 19.15426237 -26.11333279 23.03083768 -25.4375 28.4375 C -24.12888028 31.74595907 -22.64015464 34.65678512 -19.578125 36.64453125 C -15.80569558 38.04198229 -12.27605185 37.38476694 -8.4375 36.4375 C -5.01102333 34.32889897 -4.08330067 31.9274666 -3 28.1875 C -2.09207928 23.36118462 -2.95025229 19.64962065 -5.4375 15.4375 C -7.74943848 12.62639298 -8.45415389 12.4336778 -12.25 11.5625 C -16.43844519 11.20833 -18.99465624 11.87538371 -22.4375 14.4375 Z" stroke-linecap="round" />
	</g>
			<g transform="matrix(1 0 0 1 180.99 0.89)"  >
	<path style="stroke: none; stroke-width: 1; stroke-dasharray: none; stroke-linecap: butt; stroke-dashoffset: 0; stroke-linejoin: miter; stroke-miterlimit: 4; fill: rgb(9,10,12); fill-rule: nonzero; opacity: 1;"  transform=" translate(17.12, -21.98)" d="M 0 0 C 5.47763873 4.25369747 8.37621959 8.82349812 9.8828125 15.59375 C 10.80974248 23.54024346 10.53144409 30.86442779 5.8828125 37.59375 C 0.31478221 44.18367761 -6.79994605 47.45051787 -15.2109375 48.97265625 C -22.88872192 49.46038436 -30.65687312 46.12889466 -36.5546875 41.40625 C -42.39676232 35.73211984 -44.3211665 30.11107655 -44.5546875 22.03125 C -44.25869914 13.82950804 -42.36971181 8.20470933 -36.796875 2.1328125 C -26.96895084 -6.8723087 -10.88547801 -7.2302068 0 0 Z M -25.1171875 11.59375 C -28.54485669 15.36418611 -28.62572451 19.26144838 -28.47265625 24.15234375 C -27.94582209 27.77071026 -26.53796264 29.90399985 -24.1171875 32.59375 C -20.32445632 34.96819095 -17.54707843 34.75395556 -13.23828125 34.1171875 C -10.03371895 33.3263747 -8.87217222 32.40172556 -7.1171875 29.59375 C -4.91966204 24.01203534 -4.78794766 19.84995967 -7.09765625 14.3203125 C -8.25350934 12.36289079 -9.3547268 11.03422269 -11.1171875 9.59375 C -16.81632275 8.28575175 -20.13087006 8.11492388 -25.1171875 11.59375 Z" stroke-linecap="round" />
	</g>
			<g transform="matrix(1 0 0 1 -8.97 0.92)"  >
	<path style="stroke: none; stroke-width: 1; stroke-dasharray: none; stroke-linecap: butt; stroke-dashoffset: 0; stroke-linejoin: miter; stroke-miterlimit: 4; fill: rgb(9,10,12); fill-rule: nonzero; opacity: 1;"  transform=" translate(17.09, -22.01)" d="M 0 0 C 6.37221376 4.94838578 9.24756481 10.58455732 10.2578125 18.55078125 C 10.59055485 26.65097779 9.24684437 33.57198481 3.96484375 39.88671875 C -2.32837967 46.00172699 -8.47760558 48.0782409 -17.0546875 49.03125 C -25.10409922 48.64097549 -32.70095728 45.19586896 -38.45703125 39.62890625 C -43.59838194 33.32621516 -44.74991878 26.38731869 -44.43359375 18.41796875 C -43.60621447 11.03284256 -40.59541681 5.61333686 -35.1171875 0.59375 C -24.94203256 -6.67421781 -10.38733943 -6.89933984 0 0 Z M -25.1171875 11.59375 C -28.13069154 14.77110887 -28.57311532 17.13865817 -28.6171875 21.46875 C -28.50242683 25.22830947 -28.37574761 28.15813337 -26.1796875 31.28125 C -22.2058963 34.28186784 -19.05461349 34.98874408 -14.1171875 34.59375 C -10.32838493 33.02880981 -8.25437676 31.05396118 -6.1171875 27.59375 C -5.30304221 22.26146509 -5.21912175 17.25683473 -7.8046875 12.46875 C -13.71567627 7.6760564 -18.63526275 7.73217781 -25.1171875 11.59375 Z" stroke-linecap="round" />
	</g>
			<g transform="matrix(1 0 0 1 238.57 0.16)"  >
	<path style="stroke: none; stroke-width: 1; stroke-dasharray: none; stroke-linecap: butt; stroke-dashoffset: 0; stroke-linejoin: miter; stroke-miterlimit: 4; fill: rgb(9,10,12); fill-rule: nonzero; opacity: 1;"  transform=" translate(13.92, -24.75)" d="M 0 0 C 4.83670224 2.81309136 8.44503934 6.55088327 10.11009216 12.02886963 C 10.80286727 15.50944943 10.64031916 19.03561364 10.6171875 22.5703125 C 10.61577255 23.38590637 10.6143576 24.20150024 10.61289978 25.04180908 C 10.60731428 27.63988962 10.59476446 30.23788313 10.58203125 32.8359375 C 10.57701437 34.60025917 10.57245179 36.36458219 10.56835938 38.12890625 C 10.55820164 42.44797695 10.53862344 46.76686012 10.51953125 51.0859375 C 5.23953125 51.0859375 -0.04046875 51.0859375 -5.48046875 51.0859375 C -5.53654297 47.58226563 -5.53654297 47.58226563 -5.59375 44.0078125 C -5.63998816 41.74062848 -5.69121327 39.47360808 -5.74291992 37.20654297 C -5.77613247 35.63340228 -5.80417592 34.06014349 -5.8269043 32.48681641 C -5.86051903 30.22247078 -5.91283499 27.95920385 -5.96875 25.6953125 C -5.97513992 24.99412292 -5.98152985 24.29293335 -5.9881134 23.57049561 C -6.07886307 20.54285951 -6.34693895 18.33976327 -7.76635742 15.64160156 C -10.12770216 13.49853239 -12.34744497 13.60243883 -15.4453125 13.5546875 C -18.45720746 14.34090192 -19.5611911 15.64596556 -21.48046875 18.0859375 C -22.10706481 21.5474921 -22.10706481 21.5474921 -22.0546875 25.44140625 C -22.07593437 26.49476921 -22.07593437 26.49476921 -22.09761047 27.56941223 C -22.13943112 29.80424468 -22.15474006 32.03826917 -22.16796875 34.2734375 C -22.19700029 36.51894321 -22.23148242 38.76424343 -22.27046204 41.00959778 C -22.3032365 43.03905728 -22.32127134 45.06873871 -22.33862305 47.09838867 C -22.48046875 50.0859375 -22.48046875 50.0859375 -23.48046875 51.0859375 C -28.43046875 51.0859375 -33.38046875 51.0859375 -38.48046875 51.0859375 C -38.48046875 34.2559375 -38.48046875 17.4259375 -38.48046875 0.0859375 C -33.20046875 0.0859375 -27.92046875 0.0859375 -22.48046875 0.0859375 C -22.15046875 0.7459375 -21.82046875 1.4059375 -21.48046875 2.0859375 C -20.75859375 1.5909375 -20.03671875 1.0959375 -19.29296875 0.5859375 C -13.55766913 -2.24765471 -5.92684549 -2.1840659 0 0 Z" stroke-linecap="round" />
	</g>
			<g transform="matrix(1 0 0 1 70 11.04)"  >
	<path style="stroke: none; stroke-width: 1; stroke-dasharray: none; stroke-linecap: butt; stroke-dashoffset: 0; stroke-linejoin: miter; stroke-miterlimit: 4; fill: rgb(9,10,12); fill-rule: nonzero; opacity: 1;"  transform=" translate(-25, -35.54)" d="M 0 0 C 5.28 0 10.56 0 16 0 C 17.33880154 3.93571793 18.67125147 7.87338908 20 11.8125 C 20.3815625 12.93205078 20.763125 14.05160156 21.15625 15.20507812 C 21.5171875 16.27822266 21.878125 17.35136719 22.25 18.45703125 C 22.58515625 19.44678955 22.9203125 20.43654785 23.265625 21.45629883 C 24 24 24 24 24 27 C 24.66 27 25.32 27 26 27 C 26.26554687 25.71222656 26.53109375 24.42445312 26.8046875 23.09765625 C 27.91808636 18.08736139 29.45671826 13.28669215 31.125 8.4375 C 31.40214844 7.61958984 31.67929687 6.80167969 31.96484375 5.95898438 C 32.63905137 3.97123432 33.31892204 1.98540651 34 0 C 39.28 0 44.56 0 50 0 C 48.77710452 6.07868534 47.1646542 11.58724824 44.8125 17.3125 C 42.25144833 23.72485808 39.82638255 30.1641403 37.5625 36.6875 C 37.28108154 37.49783691 36.99966309 38.30817383 36.7097168 39.14306641 C 35.80356966 41.76105088 34.90121313 44.38031304 34 47 C 32.90519989 50.18196581 31.80954171 53.36361912 30.71069336 56.54418945 C 29.99645249 58.61206693 29.28494901 60.68089227 28.57641602 62.75073242 C 28.25471436 63.68248291 27.9330127 64.6142334 27.6015625 65.57421875 C 27.31619629 66.40526123 27.03083008 67.23630371 26.73681641 68.0925293 C 26 70 26 70 25 71 C 22.46950598 71.07313567 19.96695163 71.09247527 17.4375 71.0625 C 16.72658203 71.05798828 16.01566406 71.05347656 15.28320312 71.04882812 C 13.52209987 71.03700864 11.76103964 71.01907263 10 71 C 10.43557916 69.52026655 10.87360096 68.04125215 11.3125 66.5625 C 11.58191406 65.64855469 11.85132813 64.73460937 12.12890625 63.79296875 C 13.12418166 60.60183909 14.29717535 57.4981827 15.546875 54.3984375 C 16.89499283 47.26271039 13.99444987 40.73875851 11.375 34.25 C 10.65145675 32.40450259 9.9301613 30.55812256 9.2109375 28.7109375 C 8.84452148 27.77217773 8.47810547 26.83341797 8.10058594 25.86621094 C 6.32053121 21.23048723 4.64870063 16.55878906 3 11.875 C 2.69755371 11.0284082 2.39510742 10.18181641 2.08349609 9.30957031 C 1.80844238 8.52420898 1.53338867 7.73884766 1.25 6.9296875 C 1.00765625 6.24116699 0.7653125 5.55264648 0.515625 4.84326172 C 0 3 0 3 0 0 Z" stroke-linecap="round" />
	</g>
			<g transform="matrix(1 0 0 1 32.5 -10)"  >
	<path style="stroke: none; stroke-width: 1; stroke-dasharray: none; stroke-linecap: butt; stroke-dashoffset: 0; stroke-linejoin: miter; stroke-miterlimit: 4; fill: rgb(9,10,12); fill-rule: nonzero; opacity: 1;"  transform=" translate(-7.5, -36.5)" d="M 0 0 C 4.95 0 9.9 0 15 0 C 15 24.09 15 48.18 15 73 C 10.05 73 5.1 73 0 73 C 0 48.91 0 24.82 0 0 Z" stroke-linecap="round" />
	</g>
	</g>
	</g>
	</svg>